<?xml version="1.0" standalone="no"?>
<!DOCTYPE svg PUBLIC "-//W3C//DTD SVG 1.1//EN" "http://www.w3.org/Graphics/SVG/1.1/DTD/svg11.dtd" >
<svg xmlns="http://www.w3.org/2000/svg" xmlns:xlink="http://www.w3.org/1999/xlink" version="1.1" viewBox="-10 0 310 300">
   <path fill="currentColor"
d="M152.068 285.873l116.989 -68.1016l-0.193359 -135.873l-117.183 -67.7725l-116.989 68.1016l0.193359 135.873zM22.752 225.182v0q-0.285156 -11.876 -0.248047 -74.999q0.0380859 -63.123 0.00683594 -75.001l129.15 -75.1816q111.531 64.5039 129.337 74.8184
q0.285156 11.7959 0.248047 74.999q-0.0390625 63.2031 -0.0078125 75.002l-129.15 75.1807q-110.25 -63.7627 -129.336 -74.8184zM152.398 106.433l88.3369 64.7803q-13.5605 10.8018 -89.5254 71.2676l-88.3369 -64.7939l25.2598 -20.1035l31.8027 23.3291
q21.2031 15.5537 31.8037 23.3301l39.0078 -31.0459q-10.6016 -7.77637 -31.8047 -23.3301l-31.8027 -23.3301zM63.4521 128.782q69.4189 -55.79 89.3145 -71.2715l88.1406 64.7969l-25.2021 20.1191q-31.8408 -23.4346 -63.4688 -46.6592l-38.9141 31.0459
q31.5479 23.1797 63.4717 46.6602l-25.2012 20.1191z" />
</svg>
